<?xml version="1.0" standalone="no"?>
<!DOCTYPE svg PUBLIC "-//W3C//DTD SVG 20010904//EN"
 "http://www.w3.org/TR/2001/REC-SVG-20010904/DTD/svg10.dtd">
<svg version="1.0" xmlns="http://www.w3.org/2000/svg"
 width="1077.000000pt" height="1077.000000pt" viewBox="0 0 1077.000000 1077.000000"
 preserveAspectRatio="xMidYMid meet">

<g transform="translate(0.000000,1077.000000) scale(0.100000,-0.100000)"
fill="#000000" stroke="none">
<path d="M0 5385 l0 -5385 5385 0 5385 0 0 5385 0 5385 -5385 0 -5385 0 0
-5385z m5295 2246 c115 -24 234 -69 325 -122 36 -21 146 -105 226 -173 62 -53
162 -135 347 -285 l49 -38 221 -6 c240 -6 282 -13 397 -72 71 -36 171 -139
210 -215 54 -107 60 -150 60 -420 0 -227 -2 -247 -20 -278 -56 -91 -198 -97
-262 -11 -31 42 -38 93 -38 312 0 186 -2 212 -20 246 -21 42 -69 87 -109 103
-15 5 -125 9 -251 9 -170 -1 -237 2 -273 13 -50 15 -64 26 -367 274 -287 236
-298 244 -347 274 -27 15 -84 40 -128 55 -79 26 -84 27 -345 27 -234 1 -269
-1 -297 -16 -63 -35 -97 -79 -121 -158 -104 -345 -119 -385 -154 -416 -40 -37
-64 -44 -175 -50 -119 -7 -164 -23 -206 -73 -14 -17 -30 -45 -35 -63 -6 -18
-12 -135 -15 -260 -6 -253 -10 -270 -77 -315 -65 -44 -172 -22 -217 46 -22 33
-23 41 -23 271 0 131 5 262 10 291 18 97 73 195 149 268 99 95 157 121 348
157 15 3 25 14 29 32 17 68 95 294 115 333 12 24 36 61 53 82 33 42 170 147
191 147 6 0 26 7 43 16 17 8 60 19 94 24 82 11 548 4 613 -9z m-595 -1168
c207 -95 291 -332 190 -536 -40 -82 -99 -138 -188 -180 -61 -29 -76 -32 -162
-32 -86 0 -101 3 -162 32 -87 41 -151 101 -188 177 -77 156 -53 326 62 447 52
55 72 69 145 100 60 26 77 28 153 26 69 -3 97 -9 150 -34z m1635 23 c72 -19
124 -48 176 -98 111 -107 148 -258 101 -414 -34 -112 -149 -219 -268 -250
-211 -55 -415 57 -483 266 -45 136 -9 282 94 386 66 66 94 84 168 105 75 21
145 23 212 5z m-3206 -1197 c70 -15 74 -23 54 -103 -16 -65 -17 -67 -42 -61
-14 4 -57 9 -96 12 -62 4 -74 2 -105 -19 -47 -32 -64 -71 -65 -143 l0 -60 140
-3 c96 -2 142 -6 147 -15 12 -19 9 -122 -4 -135 -8 -8 -56 -12 -150 -12 l-138
0 0 -318 c0 -234 -3 -321 -12 -330 -12 -12 -134 -17 -162 -6 -14 5 -16 56 -16
473 0 494 2 519 49 595 54 87 151 135 273 136 42 0 99 -5 127 -11z m6631 -526
l5 -531 24 -26 c13 -14 36 -28 52 -31 26 -6 29 -11 29 -45 0 -44 -12 -52 -63
-40 -58 13 -101 43 -122 85 -19 38 -20 63 -23 572 l-3 532 33 10 c68 20 62 60
68 -526z m-8959 388 c97 -31 171 -88 206 -159 25 -51 28 -67 28 -162 0 -91 -3
-112 -25 -155 -64 -130 -188 -186 -447 -201 l-113 -7 -2 -186 -3 -186 -83 -3
c-54 -2 -88 1 -98 8 -22 19 -21 1048 1 1056 41 16 136 22 295 20 145 -3 186
-7 241 -25z m5201 15 c48 -8 109 -25 134 -38 68 -34 128 -105 148 -176 45
-161 -11 -297 -149 -368 -30 -15 -55 -29 -55 -31 0 -2 41 -63 91 -136 106
-153 193 -303 184 -317 -3 -5 -24 -10 -46 -10 -45 0 -64 15 -105 86 -45 79
-181 280 -215 318 l-31 36 -134 0 c-121 0 -134 -2 -134 -17 -1 -10 0 -104 0
-209 1 -214 0 -218 -67 -212 l-38 3 -3 524 c-1 294 2 529 7 534 9 9 148 23
256 26 39 0 109 -5 157 -13z m-914 -138 l3 -118 139 0 138 0 4 -76 c2 -42 1
-78 -1 -80 -2 -2 -67 -4 -143 -4 l-138 0 0 -200 c0 -206 6 -248 43 -278 30
-25 88 -32 165 -21 40 7 75 9 78 6 3 -3 11 -33 18 -66 9 -46 10 -64 1 -71 -22
-18 -130 -40 -201 -40 -189 0 -272 79 -294 282 -15 145 -13 743 3 756 14 12
119 31 157 28 25 -1 25 -1 28 -118z m3272 10 c0 -62 4 -118 8 -125 5 -9 53
-13 157 -15 l150 -3 3 -37 3 -38 -148 0 c-103 0 -153 -4 -161 -12 -15 -15 -16
-381 -2 -483 16 -109 49 -143 147 -152 43 -3 73 1 116 16 l58 20 9 -25 c14
-35 12 -50 -4 -64 -23 -18 -116 -40 -174 -40 -124 0 -196 42 -233 138 -22 55
-23 69 -27 465 -2 225 -1 419 2 432 6 23 23 31 74 34 22 1 22 -1 22 -111z
m-6756 -122 c68 -18 88 -28 138 -74 64 -58 97 -138 108 -260 5 -56 7 -109 4
-117 -5 -13 -45 -15 -264 -15 -158 0 -261 -4 -265 -10 -12 -19 17 -92 51 -129
22 -26 50 -43 81 -52 58 -17 176 -16 257 1 70 14 71 13 81 -73 9 -70 9 -70
-94 -93 -100 -22 -264 -15 -342 15 -149 57 -232 196 -233 388 0 173 63 302
184 378 81 51 194 67 294 41z m864 0 c35 -8 68 -18 73 -23 9 -9 -10 -118 -25
-141 -4 -7 -18 -7 -39 -1 -42 12 -179 12 -210 0 l-25 -10 -1 -316 c0 -173 -3
-320 -6 -325 -3 -6 -42 -10 -85 -10 -68 0 -81 3 -90 19 -6 13 -10 152 -10 385
l0 366 23 14 c19 12 138 38 222 49 62 8 112 6 173 -7z m1260 -2 c115 -34 188
-105 220 -217 23 -80 37 -215 24 -234 -6 -9 -76 -13 -267 -15 l-260 -3 1 -36
c1 -48 48 -112 99 -137 67 -33 192 -35 321 -7 35 8 35 8 50 -96 5 -43 4 -46
-23 -57 -83 -33 -292 -43 -374 -18 -158 48 -247 156 -270 326 -27 203 51 388
194 462 98 49 189 60 285 32z m957 -7 c58 -15 63 -26 42 -107 -14 -52 -16 -55
-43 -52 -150 15 -202 14 -242 -7 -80 -41 -117 -117 -117 -241 0 -157 58 -237
185 -253 36 -5 153 4 213 16 12 2 38 -111 31 -135 -9 -29 -72 -42 -209 -43
-127 0 -131 1 -203 34 -43 20 -87 50 -108 73 -138 153 -140 448 -3 601 90 101
182 139 319 132 47 -3 108 -11 135 -18z m4553 -9 c50 -13 109 -66 137 -123 18
-37 20 -66 23 -351 l3 -312 -73 -13 c-40 -8 -131 -14 -203 -14 -116 0 -135 3
-178 24 -85 42 -137 126 -137 223 0 157 153 260 364 245 44 -3 91 -9 104 -13
21 -6 22 -3 22 39 0 85 -19 144 -55 176 -19 16 -50 34 -69 39 -38 11 -162 6
-216 -8 -40 -11 -45 -7 -55 37 -5 26 -3 34 17 44 48 27 224 30 316 7z m1185 0
c26 -5 50 -14 53 -19 3 -5 2 -25 -2 -45 -7 -39 0 -38 -104 -15 -75 16 -175 7
-215 -20 -59 -40 -68 -115 -21 -167 24 -27 66 -50 176 -96 168 -71 215 -127
208 -251 -4 -91 -34 -135 -117 -174 -52 -24 -65 -26 -191 -25 -169 1 -216 15
-213 63 2 55 14 61 90 40 179 -50 333 1 333 109 0 76 -17 89 -243 191 -127 57
-177 114 -177 204 0 177 170 260 423 205z m-3437 -14 c27 -14 60 -35 72 -47
59 -54 102 -178 102 -292 0 -62 0 -63 -31 -69 -17 -3 -144 -6 -282 -6 l-250 0
6 -54 c7 -66 45 -143 91 -183 78 -69 235 -81 368 -28 13 5 20 0 28 -20 19 -50
13 -62 -37 -80 -68 -23 -211 -31 -281 -15 -145 33 -241 132 -273 281 -17 80
-7 243 20 312 39 100 119 183 206 215 17 6 71 11 121 11 80 1 97 -2 140 -25z
m882 -7 c66 -35 105 -93 127 -191 12 -57 15 -124 13 -331 l-3 -260 -42 -3
c-37 -3 -43 0 -47 20 -3 13 -7 140 -8 283 l-3 260 -30 60 c-24 47 -39 64 -75
83 -42 22 -54 23 -165 20 -66 -2 -126 -7 -133 -11 -9 -6 -12 -88 -12 -352 0
-330 -1 -345 -19 -355 -36 -19 -71 -12 -81 15 -6 15 -10 179 -9 384 0 290 3
362 14 371 28 23 150 39 285 37 126 -2 139 -4 188 -30z"/>
<path d="M4485 6156 c-30 -30 -31 -48 -8 -87 32 -54 103 -51 130 5 15 32 15
36 -4 68 -26 45 -80 51 -118 14z"/>
<path d="M6183 6154 c-20 -20 -24 -31 -19 -57 9 -44 33 -67 73 -67 43 0 73 30
73 73 0 38 -7 50 -37 66 -34 18 -62 13 -90 -15z"/>
<path d="M478 5013 l-28 -4 0 -180 c0 -163 2 -179 18 -180 9 -1 60 -1 112 0
156 3 229 44 251 140 20 88 -22 169 -104 199 -52 19 -196 34 -249 25z"/>
<path d="M5728 5083 l-38 -4 0 -231 0 -230 153 7 c209 10 288 40 322 122 17
41 20 159 4 200 -14 38 -56 81 -101 104 -62 32 -209 45 -340 32z"/>
<path d="M1436 4758 c-52 -19 -105 -95 -106 -151 l0 -27 163 2 162 3 3 33 c4
38 -27 98 -65 126 -31 23 -115 31 -157 14z"/>
<path d="M3539 4750 c-39 -21 -57 -44 -82 -106 -12 -31 -13 -44 -4 -53 7 -7
63 -11 163 -11 182 0 184 1 154 84 -18 46 -29 61 -64 81 -52 30 -115 32 -167
5z"/>
<path d="M9014 4466 c-69 -32 -94 -66 -94 -128 0 -72 21 -113 72 -140 38 -20
57 -23 158 -23 63 0 123 3 133 7 15 7 17 23 17 146 l0 140 -44 11 c-76 19
-184 13 -242 -13z"/>
<path d="M6765 4813 c-26 -7 -66 -33 -88 -58 -29 -32 -79 -142 -75 -167 l3
-23 220 0 220 0 -1 57 c-1 42 -8 68 -28 102 -40 69 -78 90 -161 93 -38 1 -79
-1 -90 -4z"/>
</g>
</svg>
