<?xml version="1.0" standalone="no"?>
<!DOCTYPE svg PUBLIC "-//W3C//DTD SVG 20010904//EN"
 "http://www.w3.org/TR/2001/REC-SVG-20010904/DTD/svg10.dtd">
<svg version="1.0" xmlns="http://www.w3.org/2000/svg"
 width="100.000000pt" height="42.000000pt" viewBox="0 0 1466.000000 620.000000"
 preserveAspectRatio="xMidYMid meet">

<g transform="translate(0.000000,620.000000) scale(0.100000,-0.100000)"
fill="#000000" stroke="none">
<path d="M0 3100 l0 -3100 7330 0 7330 0 0 3100 0 3100 -7330 0 -7330 0 0
-3100z m7280 2646 c86 -17 207 -54 270 -83 163 -74 239 -123 382 -245 39 -34
100 -85 137 -115 36 -30 97 -80 135 -111 38 -31 83 -68 101 -82 18 -14 65 -52
105 -85 40 -33 84 -69 99 -80 24 -19 46 -20 316 -26 276 -5 294 -7 371 -31
142 -46 220 -91 311 -185 87 -89 146 -188 180 -303 20 -69 32 -671 14 -737
-23 -83 -106 -143 -199 -143 -62 0 -108 19 -148 62 -59 62 -59 58 -64 398 l-6
315 -30 55 c-22 39 -47 67 -88 95 l-58 40 -341 5 c-372 6 -359 4 -452 69 -42
30 -158 123 -175 141 -3 3 -27 24 -55 45 -87 70 -328 268 -371 304 -43 38 -52
46 -124 101 -25 19 -47 38 -50 41 -18 20 -169 91 -240 112 -132 40 -248 49
-531 45 -238 -4 -257 -5 -305 -26 -108 -49 -136 -96 -227 -392 -25 -80 -55
-178 -68 -219 -29 -96 -72 -159 -129 -191 -40 -22 -59 -25 -180 -28 -121 -4
-141 -7 -189 -30 -29 -15 -68 -44 -87 -65 -60 -70 -64 -99 -64 -408 0 -254 -2
-283 -20 -332 -34 -92 -101 -137 -202 -137 -89 0 -164 56 -193 146 -14 45 -16
92 -13 345 4 262 7 303 26 374 27 101 81 207 141 279 52 63 176 160 237 186
43 19 180 54 252 65 51 8 42 -9 121 236 66 208 99 279 162 356 50 63 168 158
224 184 22 9 58 25 80 35 81 35 185 43 530 40 264 -2 347 -6 415 -20z m-854
-1519 c16 -8 55 -25 87 -38 72 -30 186 -138 224 -212 57 -114 78 -256 52 -367
-5 -24 -26 -77 -46 -117 -60 -121 -157 -210 -285 -259 -64 -25 -86 -28 -178
-28 -84 0 -116 4 -163 22 -95 36 -138 62 -195 116 -94 89 -141 179 -163 314
-38 234 112 477 341 555 41 14 89 28 105 31 51 8 190 -3 221 -17z m2253 -3
c89 -29 147 -63 202 -117 119 -117 163 -218 163 -377 1 -120 -22 -201 -83
-293 -104 -159 -244 -232 -441 -231 -111 1 -189 21 -249 64 -16 11 -33 20 -38
20 -14 0 -150 143 -166 175 -9 17 -28 69 -43 115 -24 74 -26 94 -21 170 9 122
38 203 107 294 108 143 264 211 454 200 39 -3 90 -11 115 -20z m-4269 -1580
c93 -21 96 -26 75 -121 -25 -112 -22 -106 -53 -99 -145 33 -210 31 -276 -8
-63 -37 -88 -94 -84 -193 l3 -78 185 -3 c132 -2 186 -6 192 -15 4 -6 8 -49 8
-94 0 -71 -3 -84 -19 -93 -12 -6 -93 -10 -195 -10 l-176 0 0 -419 c0 -368 -2
-421 -16 -435 -21 -22 -216 -23 -233 -2 -19 23 -9 1235 10 1296 47 151 138
242 274 275 72 18 224 18 305 -1z m8764 10 c14 -6 16 -74 17 -668 0 -363 4
-683 8 -711 10 -57 53 -102 105 -107 31 -3 31 -4 31 -58 l0 -55 -57 1 c-68 1
-153 44 -178 90 -40 71 -41 97 -38 804 l3 685 45 12 c25 6 46 12 47 12 1 1 8
-2 17 -5z m-11968 -164 c160 -25 307 -101 367 -189 23 -35 56 -124 68 -186 14
-71 -6 -215 -39 -285 -76 -161 -255 -247 -537 -256 -77 -3 -155 -7 -172 -10
l-33 -5 0 -243 c0 -213 -2 -245 -16 -250 -20 -8 -208 -8 -228 0 -14 6 -16 77
-16 704 0 611 2 699 15 704 8 3 63 10 122 16 60 5 124 12 143 14 51 6 255 -3
326 -14z m7054 -15 c36 -9 76 -18 89 -22 36 -9 105 -58 160 -114 38 -39 54
-65 72 -122 32 -98 32 -228 1 -308 -29 -73 -116 -160 -199 -200 -35 -17 -63
-36 -63 -43 0 -7 22 -42 48 -77 47 -62 132 -187 204 -299 59 -93 108 -187 108
-209 0 -19 -6 -21 -54 -21 -30 0 -62 3 -70 6 -9 4 -35 38 -58 78 -64 110 -219
343 -282 424 l-57 72 -173 0 c-140 0 -176 -3 -186 -15 -9 -11 -11 -82 -9 -277
2 -145 0 -269 -4 -275 -10 -17 -109 -17 -125 -1 -15 15 -17 1349 -2 1378 5 10
24 22 42 26 116 26 447 25 558 -1z m-1262 -164 c1 -86 7 -150 14 -158 8 -10
53 -13 189 -13 l179 0 0 -100 c0 -55 -1 -101 -2 -102 -2 -1 -86 -4 -188 -7
l-185 -6 0 -265 c1 -250 2 -268 23 -313 17 -38 30 -52 64 -67 53 -24 144 -26
218 -4 53 16 55 15 71 -5 18 -22 44 -142 36 -165 -8 -20 -128 -55 -216 -62
-92 -8 -207 9 -264 37 -56 29 -130 108 -149 161 -35 98 -39 173 -36 682 l3
500 33 8 c51 13 144 26 177 25 l30 -2 3 -144z m4340 -13 c1 -87 4 -159 5 -160
1 -1 94 -4 207 -7 l204 -6 8 -39 c14 -65 10 -66 -207 -66 -155 0 -195 -3 -205
-14 -8 -11 -11 -97 -8 -338 3 -264 7 -332 20 -372 33 -95 85 -126 217 -126 48
0 91 4 97 8 16 14 94 36 101 28 13 -12 31 -84 24 -94 -23 -35 -130 -63 -246
-64 -181 0 -262 46 -318 185 -21 50 -22 69 -25 629 l-3 577 33 10 c18 5 47 9
63 8 l30 -2 3 -157z m-8953 -147 c39 -10 88 -27 111 -39 90 -46 173 -163 206
-289 7 -26 12 -102 13 -168 l0 -120 -339 -3 c-211 -1 -344 -6 -352 -12 -8 -8
-9 -22 -3 -51 13 -55 32 -90 73 -132 72 -75 253 -98 432 -57 62 15 89 17 94
10 10 -16 34 -179 28 -185 -15 -15 -130 -47 -201 -56 -99 -13 -279 -4 -339 16
-155 53 -254 142 -307 273 -93 233 -49 521 105 683 121 126 305 176 479 130z
m1143 0 c51 -10 98 -23 103 -28 8 -8 -7 -117 -27 -184 -4 -13 -14 -14 -92 -2
-80 13 -221 10 -258 -4 -12 -4 -14 -78 -14 -427 0 -315 -3 -425 -12 -434 -8
-8 -49 -12 -120 -12 -93 0 -109 2 -117 18 -15 29 -14 984 2 1006 15 21 140 54
272 71 134 17 155 17 263 -4z m1654 3 c88 -23 149 -56 207 -113 92 -90 134
-213 135 -394 l1 -112 -350 -5 -350 -5 -3 -26 c-4 -34 29 -108 67 -151 17 -20
55 -46 83 -59 48 -22 67 -24 188 -24 101 1 150 5 192 19 32 9 62 15 67 12 10
-7 27 -78 34 -144 6 -52 -5 -62 -113 -88 -102 -26 -338 -25 -425 0 -69 21
-125 51 -175 95 -19 17 -38 31 -41 31 -7 0 -55 69 -81 117 -55 100 -75 315
-42 453 24 103 89 224 148 276 128 113 301 158 458 118z m1188 5 c36 -5 89
-17 118 -25 46 -14 52 -19 52 -41 0 -46 -33 -172 -47 -177 -7 -3 -29 2 -50 11
-27 11 -70 16 -148 17 -97 0 -115 -3 -152 -23 -24 -13 -54 -37 -68 -54 -14
-18 -29 -37 -33 -42 -5 -6 -17 -33 -28 -60 -15 -39 -19 -76 -19 -170 0 -116 1
-122 33 -185 35 -69 53 -88 117 -122 50 -26 185 -35 270 -18 33 7 73 13 89 14
29 1 30 -1 43 -64 8 -36 12 -81 11 -100 -3 -33 -6 -35 -63 -53 -87 -28 -338
-30 -410 -4 -196 72 -302 197 -341 405 -30 159 5 361 82 475 117 172 320 252
544 216z m3083 -24 c55 -14 83 -29 152 -83 50 -39 96 -121 115 -202 7 -30 16
-65 21 -78 5 -13 9 -63 9 -112 l0 -90 -117 -1 c-65 -1 -228 -1 -361 0 -151 1
-248 -2 -256 -8 -21 -17 -3 -131 32 -205 63 -134 158 -186 342 -186 78 0 120
6 164 20 87 29 93 28 104 -27 7 -33 7 -52 0 -60 -6 -7 -42 -22 -82 -34 -57
-18 -95 -22 -198 -21 -132 1 -165 7 -257 49 -108 49 -186 136 -232 263 -22 59
-24 81 -24 230 0 129 4 175 17 210 68 185 146 271 293 326 73 28 192 31 278 9z
m1172 -11 c97 -34 145 -74 189 -160 50 -97 57 -160 54 -546 l-3 -353 -48 -3
c-27 -2 -54 2 -62 8 -10 8 -14 88 -17 368 -4 345 -5 359 -28 417 -29 74 -90
139 -146 154 -86 23 -280 20 -366 -5 -17 -5 -18 -36 -18 -463 0 -342 -3 -460
-12 -469 -15 -15 -105 -16 -114 0 -11 17 -8 1008 3 1019 8 8 153 40 238 53 68
10 280 -3 330 -20z m1871 5 c90 -28 161 -97 194 -191 22 -61 24 -78 28 -446 3
-283 1 -386 -8 -397 -6 -8 -33 -17 -58 -20 -26 -4 -65 -11 -87 -17 -22 -5
-112 -10 -200 -10 -232 1 -291 24 -393 157 -30 39 -46 221 -24 277 35 87 113
158 207 188 22 7 51 17 65 22 39 13 249 12 299 -1 66 -19 74 -7 60 98 -5 46
-16 99 -24 118 -15 36 -58 77 -109 105 -49 27 -195 24 -343 -8 -28 -5 -33 -3
-38 17 -15 61 -11 83 17 97 45 21 106 30 229 31 93 1 131 -3 185 -20z m1553 5
c38 -8 77 -24 86 -34 15 -16 15 -23 4 -57 -7 -21 -16 -41 -19 -46 -4 -4 -35 2
-69 13 -47 15 -91 20 -165 20 -90 0 -108 -3 -154 -26 -69 -34 -86 -66 -83
-157 1 -29 9 -46 36 -73 33 -33 66 -50 276 -147 181 -83 228 -137 237 -272 2
-39 -1 -89 -7 -111 -17 -64 -75 -122 -161 -162 l-75 -35 -155 -1 c-136 0 -163
3 -225 24 -38 12 -73 27 -76 33 -6 9 2 56 16 90 8 20 25 20 100 -4 22 -7 95
-14 162 -16 107 -4 130 -1 183 18 85 31 120 95 100 185 -14 61 -76 104 -280
190 -169 72 -245 141 -271 247 -17 70 9 168 59 220 87 91 151 115 305 116 64
1 136 -5 176 -15z"/>
<path d="M6217 3809 c-25 -15 -49 -68 -43 -94 9 -34 52 -82 81 -89 39 -10 92
18 111 57 19 40 14 71 -17 110 -17 23 -28 27 -67 27 -26 0 -55 -5 -65 -11z"/>
<path d="M8453 3794 c-22 -22 -25 -32 -21 -76 7 -66 32 -91 92 -91 51 0 77 17
96 63 15 37 -1 92 -35 114 -39 25 -101 21 -132 -10z"/>
<path d="M873 2274 c-10 -4 -13 -61 -13 -234 0 -192 2 -230 15 -240 12 -10 48
-12 146 -7 250 11 346 78 348 240 1 74 -36 157 -82 186 -66 40 -118 52 -262
56 -77 3 -146 2 -152 -1z"/>
<path d="M7855 2374 c-22 -3 -46 -12 -52 -21 -17 -21 -18 -544 -3 -574 13 -23
61 -24 290 -8 165 11 211 25 282 81 59 47 81 103 80 214 0 94 -9 124 -56 187
-31 42 -114 92 -176 106 -57 13 -295 22 -365 15z"/>
<path d="M2215 1955 c-5 -2 -22 -6 -37 -9 -62 -14 -141 -113 -154 -194 l-7
-42 224 2 224 3 -3 41 c-3 58 -26 107 -67 147 -44 42 -132 68 -180 52z"/>
<path d="M4985 1948 c-56 -20 -97 -59 -127 -124 -16 -35 -28 -73 -26 -86 l3
-23 220 0 220 0 3 26 c4 36 -54 158 -82 170 -11 6 -37 19 -56 30 -38 21 -106
24 -155 7z"/>
<path d="M9192 1999 c-36 -18 -76 -49 -93 -70 -46 -58 -91 -165 -87 -207 l3
-37 288 -3 287 -2 12 24 c8 20 7 40 -8 97 -24 92 -61 149 -126 190 -44 29 -60
33 -132 36 -75 4 -86 1 -144 -28z"/>
<path d="M12340 1579 c-111 -7 -158 -20 -200 -56 -46 -38 -60 -73 -60 -150 0
-93 26 -138 99 -175 53 -27 60 -28 213 -28 211 0 200 -11 197 198 -1 86 -5
165 -10 174 -17 32 -106 46 -239 37z"/>
</g>
</svg>
